<?xml version="1.0" standalone="no"?>
<!DOCTYPE svg PUBLIC "-//W3C//DTD SVG 20010904//EN"
 "http://www.w3.org/TR/2001/REC-SVG-20010904/DTD/svg10.dtd">
<svg version="1.0" xmlns="http://www.w3.org/2000/svg"
 width="32px" height="32px" viewBox="0 0 1066.000000 829.000000"
 preserveAspectRatio="xMidYMid meet">

<g transform="translate(0.000000,829.000000) scale(0.100000,-0.100000)"
fill="#000000" stroke="none">
<path d="M4030 6029 c-30 -44 -60 -85 -65 -92 -6 -7 -35 -48 -65 -92 -30 -44
-57 -82 -60 -85 -14 -14 -331 -498 -432 -660 -275 -439 -535 -878 -561 -945
-26 -66 -28 -204 -4 -303 38 -161 118 -335 233 -508 59 -88 221 -285 240 -291
12 -4 34 47 34 76 -1 9 -36 54 -80 101 -44 47 -83 94 -86 105 -12 39 -44 104
-54 110 -17 10 -80 113 -129 210 -59 117 -66 187 -27 267 28 57 52 100 82 145
10 15 57 96 105 178 95 165 145 250 257 430 41 66 98 157 126 203 28 45 105
164 171 263 66 100 125 189 130 197 60 94 209 312 267 392 l73 100 22 -27 c13
-16 23 -34 23 -41 0 -25 155 -302 169 -302 4 0 15 6 25 13 17 12 14 19 -44 96
-120 160 -223 346 -266 484 -10 31 -20 57 -23 57 -3 -1 -31 -37 -61 -81z"/>
<path d="M5599 4455 c-21 -47 -39 -87 -39 -90 0 -2 33 -23 73 -46 39 -23 83
-49 97 -58 14 -9 53 -29 87 -45 l62 -29 20 24 c11 13 22 34 26 47 3 13 16 46
30 75 13 29 21 55 17 59 -4 3 -36 18 -72 33 -36 15 -104 47 -152 71 -48 24
-92 44 -98 44 -6 0 -29 -38 -51 -85z"/>
<path d="M6216 4292 c-3 -5 -10 -41 -16 -78 -6 -38 -14 -87 -19 -108 -11 -44
-7 -56 15 -56 8 0 33 -9 57 -19 23 -10 53 -22 67 -25 14 -4 68 -18 120 -32
139 -37 330 -63 447 -61 118 2 102 -9 189 137 32 52 64 106 73 119 l15 24 -79
-7 c-110 -10 -299 -8 -392 4 -87 12 -262 46 -308 60 -16 5 -55 17 -85 26 -30
9 -60 19 -66 21 -7 2 -15 0 -18 -5z"/>
<path d="M6440 3633 c-165 -55 -322 -219 -446 -465 -101 -201 -104 -387 -7
-453 47 -31 139 -34 192 -6 l33 18 -33 21 c-60 39 -102 72 -115 90 -37 53 -33
139 13 272 36 107 66 155 147 238 77 79 85 82 170 57 28 -8 78 -22 111 -31 73
-20 225 -70 360 -119 55 -20 118 -43 140 -51 22 -8 56 -23 75 -33 19 -10 46
-22 60 -26 14 -4 32 -13 40 -20 19 -15 80 -31 65 -16 -5 5 -129 76 -275 157
-146 81 -274 156 -284 167 -10 11 -21 35 -23 53 -6 60 -41 113 -89 134 -40 19
-100 25 -134 13z"/>
<path d="M3425 2993 l-25 -38 82 -80 c92 -89 181 -165 194 -165 11 0 64 95 64
113 0 11 -38 41 -90 72 -20 12 -78 58 -130 103 -20 17 -45 32 -53 32 -9 0 -28
-17 -42 -37z"/>
<path d="M6260 2676 c0 -2 7 -7 16 -10 8 -3 12 -2 9 4 -6 10 -25 14 -25 6z"/>
<path d="M4000 2569 l-55 -49 25 -20 c43 -33 290 -157 405 -203 332 -133 603
-189 905 -189 318 1 539 77 628 215 23 36 122 174 156 216 6 8 -22 -6 -62 -31
-73 -46 -146 -70 -312 -105 -68 -14 -141 -17 -365 -18 l-280 -2 -55 -31 c-62
-36 -65 -36 -220 5 -52 14 -108 29 -125 33 -35 9 -145 49 -225 80 -30 12 -72
28 -93 36 -21 8 -84 37 -141 64 -57 28 -110 50 -117 50 -8 -1 -39 -23 -69 -51z"/>
<path d="M8142 2598 c15 -13 50 -39 78 -58 194 -132 510 -419 618 -562 52 -68
132 -192 132 -206 0 -4 4 -13 9 -21 6 -10 22 -2 69 35 71 58 147 98 221 117
l54 14 -84 50 c-46 27 -158 94 -249 148 -91 54 -205 121 -255 150 -49 29 -130
76 -180 105 -137 80 -419 242 -430 247 -5 3 2 -6 17 -19z"/>
<path d="M7945 1459 c32 -24 122 -88 200 -141 77 -53 196 -136 265 -183 69
-47 163 -113 210 -145 47 -32 86 -57 88 -56 1 2 -5 33 -13 70 -13 56 -14 82
-5 154 19 147 24 133 -50 160 -126 45 -156 54 -250 68 -52 7 -126 21 -165 30
-97 22 -296 71 -320 80 -11 3 7 -13 40 -37z"/>
</g>
</svg>
